<?xml version="1.0" encoding="iso-8859-1"?>
<!-- Generator: Adobe Illustrator 19.0.0, SVG Export Plug-In . SVG Version: 6.00 Build 0)  -->
<svg version="1.1" id="Capa_1" xmlns="http://www.w3.org/2000/svg" xmlns:xlink="http://www.w3.org/1999/xlink" x="0px" y="0px"
	 viewBox="0 0 489.8 489.8" style="enable-background:new 0 0 489.8 489.8;" xml:space="preserve">
<g>
	<g>
		<path d="M215,324.8c17.4,9.2,54,18.8,54.6,19.2c0.8,0.4,12.1,2.5,34.5,13c22.3,10.5,23.5,33.3,23.5,33.3v37l-163.8,0.1L0,427.3
			v-37c0,0,1.2-22.8,23.5-33.3s33.7-12.6,34.5-13c0.7-0.4,37.2-10,54.6-19.2c0.4-0.2,0.8-0.4,1.2-0.7c0,0,0.1,0,0.1-0.1
			c3.7-2.4,5.9-6.5,5.9-10.8v-16.8v-5.1c-58.2,0.5-75.4-24.4-75.4-24.4s33.2-0.5,31.2-88.2C73.5,91,113.9,76.5,129,70.8
			c43.9-16.7,65.9,9.9,65.9,9.9c50.8-4.7,64.9,50.8,58.6,114.1c-6.2,63.3,28.5,73.1,28.5,73.1c-23.9,24.4-74.2,23.4-74.2,23.4v5.1
			l0,0v16.8c0,4.4,2.2,8.5,5.9,10.8L215,324.8z"/>
		<path d="M415.7,62.4h-67.3c-41,0-74.2,33.2-74.2,74.2c0,32.8,21.3,60.5,50.7,70.3v35.4c0,3.3,4,4.9,6.3,2.6l34.1-34.1h50.3
			c41,0,74.2-33.2,74.2-74.2S456.6,62.4,415.7,62.4z M351.6,145.8c-5.1,0-9.2-4.1-9.2-9.2c0-5.1,4.1-9.2,9.2-9.2s9.2,4.1,9.2,9.2
			C360.7,141.7,356.6,145.8,351.6,145.8z M382,145.8c-5.1,0-9.2-4.1-9.2-9.2c0-5.1,4.1-9.2,9.2-9.2s9.2,4.1,9.2,9.2
			C391.2,141.7,387.1,145.8,382,145.8z M412.5,145.8c-5.1,0-9.2-4.1-9.2-9.2c0-5.1,4.1-9.2,9.2-9.2s9.2,4.1,9.2,9.2
			C421.7,141.7,417.6,145.8,412.5,145.8z"/>
	</g>
</g>
<g>
</g>
<g>
</g>
<g>
</g>
<g>
</g>
<g>
</g>
<g>
</g>
<g>
</g>
<g>
</g>
<g>
</g>
<g>
</g>
<g>
</g>
<g>
</g>
<g>
</g>
<g>
</g>
<g>
</g>
</svg>
